<svg xmlns="http://www.w3.org/2000/svg" version="1.1" xmlns:xlink="http://www.w3.org/1999/xlink"
    xmlns:svgjs="http://svgjs.dev/svgjs" width="1440" height="668" preserveAspectRatio="none" viewBox="0 0 1440 668">
    <g mask="url(&quot;#SvgjsMask1000&quot;)" fill="none">
        <rect width="1440" height="668" x="0" y="0" fill="rgba(22, 22, 45, 1)"></rect>
        <path
            d="M0,411.326C96.303,425.359,196.496,484.327,284.347,442.453C372.625,400.375,401.791,290.981,440.704,201.263C478.936,113.115,526.004,21.337,507.925,-73.029C490.095,-166.096,406.524,-226.871,344.893,-298.851C282.856,-371.306,238.773,-475.366,145.672,-496.113C52.69,-516.833,-33.41,-445.744,-118.042,-402.013C-188.164,-365.78,-250.83,-321.74,-304.248,-263.633C-359.064,-204.006,-413.689,-141.115,-430.689,-61.924C-448.294,20.085,-434.802,106.358,-400.061,182.702C-365.292,259.108,-308.534,325.028,-235.651,366.679C-164.804,407.166,-80.747,399.56,0,411.326"
            fill="#0e0e1d"></path>
        <path
            d="M1440 1219.0610000000001C1565.63 1254.367 1703.193 1316.85 1821.239 1261.22 1939.997 1205.255 1985.1570000000002 1061.123 2033.853 939.204 2080.636 822.0740000000001 2133.868 693.962 2095.84 573.704 2058.968 457.102 1920.575 413.369 1838.817 322.423 1759.136 233.78699999999998 1735.915 83.144 1622.344 46.99300000000005 1508.903 10.883000000000038 1400.582 111.25400000000002 1286.949 146.75599999999997 1175.749 181.497 1046.223 173.39800000000002 961.567 253.435 874.375 335.869 839.359 460.586 828.602 580.094 818.184 695.829 835.878 818.173 902.139 913.633 964.1759999999999 1003.008 1080.797 1025.997 1175.404 1079.72 1263.877 1129.96 1342.052 1191.5349999999999 1440 1219.0610000000001"
            fill="#1e1e3d"></path>
    </g>
    <defs>
        <mask id="SvgjsMask1000">
            <rect width="1440" height="668" fill="#ffffff"></rect>
        </mask>
    </defs>
</svg>