<!DOCTYPE svg PUBLIC "-//W3C//DTD SVG 1.1//EN" "http://www.w3.org/Graphics/SVG/1.1/DTD/svg11.dtd">
<!-- Uploaded to: SVG Repo, www.svgrepo.com, Transformed by: SVG Repo Mixer Tools -->
<svg fill="#4436b0" height="800px" width="800px" version="1.1" id="Capa_1" xmlns="http://www.w3.org/2000/svg" xmlns:xlink="http://www.w3.org/1999/xlink" viewBox="0 0 490 490" xml:space="preserve" stroke="#4436b0">
<g id="SVGRepo_bgCarrier" stroke-width="0"/>
<g id="SVGRepo_tracerCarrier" stroke-linecap="round" stroke-linejoin="round"/>
<g id="SVGRepo_iconCarrier"> <g> <path d="M453.662,19.399H36.338C16.301,19.399,0,35.7,0,55.737v263.975c0,20.037,16.301,36.338,36.338,36.338h159.033 l-23.226,61.974H128.07c-8.54,0-15.464,6.924-15.464,15.464v21.65c0,8.539,6.924,15.463,15.464,15.463H361.93 c8.539,0,15.464-6.924,15.464-15.463v-21.65c0-8.54-6.925-15.464-15.464-15.464h-44.075L294.63,356.05h159.032 c20.037,0,36.338-16.301,36.338-36.338V55.737C490,35.7,473.699,19.399,453.662,19.399z M450.116,316.166H39.884V59.283h410.232 V316.166z"/> <path d="M245,103.498c-30.85,0-55.949,25.1-55.949,55.95c0,29.931,51.673,108.077,53.872,111.389 c0.463,0.695,1.242,1.113,2.077,1.113c0.835,0,1.615-0.418,2.077-1.113c2.199-3.312,53.872-81.458,53.872-111.389 C300.949,128.598,275.852,103.498,245,103.498z M245,131.034c15.62,0,28.329,12.708,28.329,28.329 c0,15.619-12.709,28.327-28.329,28.327s-28.329-12.708-28.329-28.327C216.671,143.742,229.38,131.034,245,131.034z"/> </g> </g>
</svg>