<!DOCTYPE svg PUBLIC "-//W3C//DTD SVG 1.1//EN" "http://www.w3.org/Graphics/SVG/1.1/DTD/svg11.dtd">
<!-- Uploaded to: SVG Repo, www.svgrepo.com, Transformed by: SVG Repo Mixer Tools -->
<svg height="800px" width="800px" version="1.1" id="Layer_1" xmlns="http://www.w3.org/2000/svg" xmlns:xlink="http://www.w3.org/1999/xlink" viewBox="0 0 512.003 512.003" xml:space="preserve" fill="#4436b0">
<g id="SVGRepo_bgCarrier" stroke-width="0"/>
<g id="SVGRepo_tracerCarrier" stroke-linecap="round" stroke-linejoin="round"/>
<g id="SVGRepo_iconCarrier"> <circle style="fill:#CEE8FA;" cx="256" cy="191.991" r="106.247"/> <g> <path style="fill:#2D527C;" d="M256.001,71.388c-66.502,0-120.605,54.103-120.605,120.605s54.103,120.605,120.605,120.605 s120.605-54.103,120.605-120.605S322.503,71.388,256.001,71.388z M270.359,282.752v-31.373c0-7.93-6.428-14.358-14.358-14.358 c-7.93,0-14.358,6.428-14.358,14.358v31.373c-39.191-6.177-70.225-37.211-76.403-76.403h31.373c7.93,0,14.358-6.428,14.358-14.358 c0-7.93-6.428-14.358-14.358-14.358h-31.373c6.177-39.191,37.211-70.225,76.403-76.403v31.373c0,7.93,6.428,14.358,14.358,14.358 c7.93,0,14.358-6.428,14.358-14.358v-31.372c39.191,6.177,70.225,37.211,76.403,76.403h-31.373c-7.93,0-14.358,6.428-14.358,14.358 s6.428,14.358,14.358,14.358h31.373C340.586,245.541,309.551,276.575,270.359,282.752z"/> <path style="fill:#2D527C;" d="M256.001,0c-35.904,0-70.907,10.007-101.223,28.938c-6.727,4.2-8.773,13.057-4.573,19.783 s13.057,8.773,19.783,4.573c25.749-16.079,55.491-24.579,86.013-24.579c89.675,0,162.633,72.957,162.633,162.634 c0,48.796-21.713,105.72-64.535,169.191c-4.435,6.573-2.702,15.496,3.872,19.931c2.462,1.661,5.253,2.457,8.016,2.457 c4.612,0,9.142-2.218,11.915-6.329c46.082-68.301,69.447-130.628,69.447-185.25C447.351,85.839,361.512,0,256.001,0z"/> <path style="fill:#2D527C;" d="M331.214,415.882c-6.101-5.067-15.153-4.23-20.219,1.871 c-15.142,18.229-29.382,33.732-40.637,45.439v-99.025c0-7.93-6.428-14.358-14.358-14.358c-7.93,0-14.358,6.428-14.358,14.358 v98.887C194.236,413.477,93.369,295.721,93.369,191.351c0-30.079,8.27-59.452,23.916-84.943c4.148-6.758,2.033-15.6-4.727-19.746 c-6.758-4.149-15.6-2.032-19.746,4.727c-18.421,30.012-28.158,64.58-28.158,99.964c0,62.752,30.75,135.307,91.394,215.651 c44.52,58.983,88.393,99.516,90.24,101.212c0.093,0.086,0.194,0.158,0.289,0.241c0.178,0.155,0.357,0.307,0.544,0.454 c0.179,0.142,0.362,0.277,0.547,0.409s0.37,0.261,0.561,0.385c0.197,0.126,0.395,0.245,0.596,0.362 c0.192,0.112,0.386,0.221,0.586,0.325c0.207,0.108,0.416,0.205,0.626,0.301c0.204,0.093,0.408,0.185,0.617,0.27 c0.214,0.086,0.429,0.161,0.646,0.237c0.214,0.075,0.426,0.149,0.645,0.212c0.227,0.066,0.455,0.121,0.685,0.177 c0.212,0.052,0.424,0.106,0.639,0.148c0.267,0.052,0.536,0.086,0.804,0.122c0.182,0.024,0.363,0.057,0.548,0.075 c0.461,0.045,0.922,0.07,1.384,0.07c0.461,0,0.922-0.026,1.383-0.07c0.184-0.017,0.362-0.05,0.544-0.075 c0.27-0.036,0.54-0.072,0.807-0.123c0.214-0.042,0.422-0.095,0.633-0.146c0.231-0.056,0.462-0.111,0.691-0.178 c0.215-0.063,0.425-0.136,0.636-0.21c0.22-0.076,0.438-0.152,0.655-0.24c0.205-0.082,0.406-0.172,0.606-0.264 c0.214-0.098,0.426-0.198,0.637-0.307c0.194-0.101,0.383-0.207,0.571-0.314c0.205-0.119,0.409-0.241,0.61-0.37 c0.185-0.119,0.366-0.244,0.546-0.372c0.19-0.135,0.376-0.274,0.561-0.419c0.181-0.142,0.356-0.289,0.528-0.439 c0.093-0.082,0.194-0.154,0.286-0.237c1.272-1.164,31.557-28.997,67.391-72.133C338.152,430.002,337.315,420.949,331.214,415.882z"/> </g> </g>
</svg>