<!DOCTYPE svg PUBLIC "-//W3C//DTD SVG 1.1//EN" "http://www.w3.org/Graphics/SVG/1.1/DTD/svg11.dtd">
<!-- Uploaded to: SVG Repo, www.svgrepo.com, Transformed by: SVG Repo Mixer Tools -->
<svg height="800px" width="800px" version="1.1" id="Layer_1" xmlns="http://www.w3.org/2000/svg" xmlns:xlink="http://www.w3.org/1999/xlink" viewBox="0 0 512 512" xml:space="preserve" fill="#4436b0">
<g id="SVGRepo_bgCarrier" stroke-width="0"/>
<g id="SVGRepo_tracerCarrier" stroke-linecap="round" stroke-linejoin="round"/>
<g id="SVGRepo_iconCarrier"> <g> <polygon style="fill:#CDE6F8;" points="336.416,411.177 175.584,478.304 175.584,100.806 336.416,33.677 "/> <circle style="fill:#CDE6F8;" cx="95.322" cy="186.041" r="29.551"/> </g> <path style="fill:#2D527C;" d="M95.328,230.34c-24.429,0-44.302-19.874-44.302-44.302s19.874-44.302,44.302-44.302 s44.3,19.873,44.3,44.3S119.757,230.34,95.328,230.34z M95.328,171.243c-8.157,0-14.795,6.636-14.795,14.793 c0,8.157,6.638,14.795,14.795,14.795s14.793-6.638,14.793-14.795C110.121,177.879,103.487,171.243,95.328,171.243z"/> <circle style="fill:#CDE6F8;" cx="416.668" cy="303.272" r="29.551"/> <g> <path style="fill:#2D527C;" d="M416.672,347.583c-24.429,0-44.3-19.874-44.3-44.302s19.873-44.302,44.3-44.302 s44.302,19.874,44.302,44.302S441.099,347.583,416.672,347.583z M416.672,288.485c-8.157,0-14.793,6.638-14.793,14.795 c0,8.157,6.636,14.795,14.793,14.795s14.795-6.638,14.795-14.795C431.467,295.122,424.829,288.485,416.672,288.485z"/> <path style="fill:#2D527C;" d="M497.247,284.336c8.147,0,14.753-6.607,14.753-14.753V59.773c0-7.235-5.248-13.404-12.39-14.563 L338.778,19.114c-0.184-0.03-0.369-0.037-0.553-0.059c-0.224-0.028-0.449-0.055-0.674-0.072c-0.366-0.028-0.73-0.037-1.095-0.038 c-0.204,0-0.406-0.006-0.609,0.001c-0.407,0.016-0.811,0.056-1.214,0.106c-0.162,0.019-0.325,0.03-0.487,0.055 c-1.14,0.177-2.254,0.487-3.321,0.924c-0.031,0.013-0.063,0.019-0.093,0.032l-155.68,64.979L19.506,32.128 c-4.509-1.534-9.475-0.8-13.342,1.973C2.296,36.87,0,41.336,0,46.095v377.5c0,6.316,4.022,11.933,10.001,13.967l64.113,21.809 c7.709,2.623,16.095-1.502,18.719-9.215c2.625-7.715-1.502-16.095-9.215-18.719L29.507,413.03V66.699l131.325,44.672v189.091 l-58.213-28.98c-7.296-3.632-16.151-0.658-19.783,6.632c-3.631,7.294-0.661,16.151,6.632,19.783l71.364,35.528v144.881 c0,0.577,0.041,1.143,0.106,1.704c0.018,0.153,0.047,0.302,0.069,0.454c0.062,0.418,0.137,0.831,0.232,1.235 c0.037,0.158,0.078,0.314,0.121,0.471c0.111,0.412,0.24,0.814,0.385,1.21c0.047,0.13,0.091,0.261,0.143,0.389 c0.198,0.496,0.416,0.98,0.664,1.447c0.01,0.021,0.019,0.043,0.031,0.062c0.264,0.491,0.558,0.963,0.875,1.419 c0.084,0.122,0.179,0.238,0.267,0.357c0.238,0.322,0.484,0.633,0.747,0.934c0.125,0.145,0.254,0.285,0.385,0.423 c0.266,0.282,0.543,0.552,0.831,0.811c0.124,0.112,0.243,0.23,0.372,0.338c0.422,0.357,0.862,0.696,1.323,1.005 c0.007,0.004,0.015,0.012,0.022,0.016c0.025,0.016,0.052,0.027,0.075,0.043c0.525,0.347,1.078,0.651,1.648,0.929 c0.114,0.056,0.227,0.112,0.344,0.165c0.596,0.273,1.208,0.513,1.844,0.705c0.037,0.012,0.075,0.018,0.114,0.03 c0.578,0.17,1.171,0.297,1.776,0.395c0.148,0.024,0.295,0.047,0.444,0.068c0.634,0.083,1.278,0.142,1.936,0.142l0,0l0,0 c0.488,0,0.978-0.025,1.465-0.074c0.328-0.032,0.648-0.09,0.968-0.143c0.153-0.027,0.31-0.04,0.463-0.071 c0.435-0.087,0.862-0.198,1.284-0.323c0.04-0.012,0.08-0.019,0.12-0.031c0.512-0.156,1.014-0.338,1.5-0.547l156.823-65.455 l156.674,25.422c0.786,0.127,1.577,0.19,2.363,0.19c3.477,0,6.874-1.23,9.56-3.517c3.293-2.802,5.193-6.912,5.193-11.236v-99.356 c0-8.147-6.607-14.753-14.753-14.753s-14.753,6.607-14.753,14.753v82.016l-131.325-21.308V213.217l59.226,24.112 c7.542,3.075,16.154-0.556,19.227-8.101c3.073-7.546-0.555-16.155-8.101-19.227l-70.352-28.642V51.017l131.325,21.307v197.257 C482.493,277.729,489.1,284.336,497.247,284.336z M321.661,184.375L190.337,293.93V110.634l131.324-54.812L321.661,184.375 L321.661,184.375z M190.339,332.357l131.324-109.555v178.545l-131.324,54.812V332.357z"/> </g> </g>
</svg>