<!DOCTYPE svg PUBLIC "-//W3C//DTD SVG 1.1//EN" "http://www.w3.org/Graphics/SVG/1.1/DTD/svg11.dtd">
<!-- Uploaded to: SVG Repo, www.svgrepo.com, Transformed by: SVG Repo Mixer Tools -->
<svg height="800px" width="800px" version="1.1" id="Layer_1" xmlns="http://www.w3.org/2000/svg" xmlns:xlink="http://www.w3.org/1999/xlink" viewBox="0 0 511.999 511.999" xml:space="preserve" fill="#4436b0">
<g id="SVGRepo_bgCarrier" stroke-width="0"/>
<g id="SVGRepo_tracerCarrier" stroke-linecap="round" stroke-linejoin="round"/>
<g id="SVGRepo_iconCarrier"> <g> <polygon style="fill:#CEE8FA;" points="415.251,497.609 96.719,497.609 128.694,401.742 383.275,401.742 "/> <circle style="fill:#CEE8FA;" cx="225.488" cy="173.007" r="36.047"/> </g> <g> <path style="fill:#2D527C;" d="M225.492,223.442c-27.813,0-50.439-22.627-50.439-50.439s22.628-50.439,50.439-50.439 s50.439,22.628,50.439,50.439S253.305,223.442,225.492,223.442z M225.492,151.344c-11.944,0-21.66,9.716-21.66,21.66 s9.716,21.66,21.66,21.66s21.66-9.716,21.66-21.66S237.435,151.344,225.492,151.344z"/> <path style="fill:#2D527C;" d="M428.604,492.167l-31.679-94.977c-1.96-5.875-7.458-9.837-13.65-9.837h-112.9V280.6 c0-7.948-6.442-14.39-14.39-14.39c-65.461,0-118.716-53.255-118.716-118.716S190.525,28.778,255.985,28.778 s118.716,53.255,118.716,118.716c0,32.61-12.954,63.016-36.477,85.617c-5.73,5.506-5.913,14.616-0.407,20.346 s14.616,5.911,20.346,0.407c29.223-28.077,45.316-65.854,45.316-106.368C403.48,66.166,337.314,0,255.984,0 S108.488,66.166,108.488,147.496c0,76.475,58.505,139.535,133.106,146.792v93.065h-112.9c-6.193,0-11.692,3.962-13.65,9.837 l-31.976,95.866c-1.463,4.389-0.728,9.212,1.977,12.965c2.704,3.753,7.048,5.978,11.674,5.978h318.53c0.009,0,0.017,0,0.029,0 c7.948,0,14.39-6.442,14.39-14.39C429.669,495.682,429.291,493.846,428.604,492.167z M116.688,483.219l22.376-67.087h102.53v29.227 c0,7.948,6.442,14.39,14.39,14.39c7.947,0,14.39-6.442,14.39-14.39v-29.227h102.53l22.376,67.087H116.688z"/> </g> </g>
</svg>