<svg xmlns="http://www.w3.org/2000/svg" version="1.1" xmlns:xlink="http://www.w3.org/1999/xlink" xmlns:svgjs="http://svgjs.dev/svgjs" width="1440" height="560" preserveAspectRatio="none" viewBox="0 0 1440 560"><g mask="url(&quot;#SvgjsMask1193&quot;)" fill="none"><rect width="1440" height="560" x="0" y="0" fill="rgba(34, 34, 34, 1)"></rect><path d="M1488 560L0 560 L0 290.01Q75.88 245.89, 120 321.77Q129.47 259.24, 192 268.71Q237.38 194.08, 312 239.46Q355.36 210.82, 384 254.19Q407.12 205.31, 456 228.42Q497.51 197.93, 528 239.44Q585.07 224.51, 600 281.58Q666.04 227.62, 720 293.65Q799.11 252.75, 840 331.86Q843.11 262.97, 912 266.07Q932.76 214.83, 984 235.59Q1070.56 202.14, 1104 288.7Q1171.25 235.95, 1224 303.2Q1278.82 286.02, 1296 340.84Q1306.95 231.79, 1416 242.74Q1445.54 200.28, 1488 229.82z" fill="rgba(30, 30, 30, 1)"></path><path d="M1488 560L0 560 L0 390.31Q48.93 319.24, 120 368.17Q132.47 308.64, 192 321.11Q238.17 295.28, 264 341.46Q336.52 293.98, 384 366.49Q395.84 306.33, 456 318.16Q531.7 273.87, 576 349.57Q606.89 308.46, 648 339.35Q747.48 318.83, 768 418.3Q787.18 365.48, 840 384.66Q872.99 297.65, 960 330.65Q1002.17 300.82, 1032 342.99Q1056.07 295.06, 1104 319.13Q1196.03 291.16, 1224 383.2Q1248.32 335.52, 1296 359.84Q1326.36 318.2, 1368 348.56Q1444.78 305.34, 1488 382.11z" fill="rgba(26, 26, 26, 1)"></path><path d="M1536 560L0 560 L0 483.71Q20.71 432.42, 72 453.14Q88.51 397.65, 144 414.17Q187.34 385.51, 216 428.85Q291.91 432.76, 288 508.68Q275.59 424.27, 360 411.87Q414.67 346.54, 480 401.21Q578.87 380.08, 600 478.95Q610.83 417.78, 672 428.62Q695.35 379.97, 744 403.31Q786.62 373.93, 816 416.54Q906.69 387.24, 936 477.93Q951.44 421.37, 1008 436.8Q1057.08 413.88, 1080 462.95Q1084.16 395.12, 1152 399.28Q1252.71 379.99, 1272 480.7Q1292.07 428.76, 1344 448.83Q1374.3 407.13, 1416 437.43Q1465.59 367.02, 1536 416.61z" fill="rgba(22, 22, 22, 1)"></path><path d="M1512 560L0 560 L0 585.75Q5.82 519.57, 72 525.39Q94.98 476.37, 144 499.35Q228.39 463.74, 264 548.13Q284.43 496.56, 336 516.99Q379.07 440.06, 456 483.13Q515.77 470.9, 528 530.68Q581.8 512.48, 600 566.28Q603.77 498.05, 672 501.82Q739.96 449.78, 792 517.74Q809.54 463.28, 864 480.82Q905.89 450.72, 936 492.61Q1002.06 438.68, 1056 504.74Q1122.94 499.68, 1128 566.62Q1169.2 487.82, 1248 529.02Q1295.83 456.85, 1368 504.67Q1428.5 493.17, 1440 553.67Q1458.61 500.28, 1512 518.89z" fill="rgba(18, 18, 18, 1)"></path></g><defs><mask id="SvgjsMask1193"><rect width="1440" height="560" fill="#ffffff"></rect></mask></defs></svg>