<svg xmlns="http://www.w3.org/2000/svg" version="1.1" xmlns:xlink="http://www.w3.org/1999/xlink"
    xmlns:svgjs="http://svgjs.dev/svgjs" width="1440" height="668" preserveAspectRatio="none" viewBox="0 0 1440 668">
    <g mask="url(&quot;#SvgjsMask1080&quot;)" fill="none">
        <rect width="1440" height="668" x="0" y="0" fill="rgba(238, 238, 238, 0.9333333333333333)"></rect>
        <path
            d="M0,598.439C108.957,614.223,194.024,502.628,275.28,428.344C345.606,364.052,390.455,282.761,436.536,199.359C486.528,108.877,573.154,22.003,556.124,-79.959C539.095,-181.916,428.271,-235.182,352.257,-305.232C284.98,-367.231,219.275,-426.45,136.912,-466.279C41.252,-512.539,-57.604,-569.6,-162.752,-554.283C-272.905,-538.237,-373.883,-470.931,-440.966,-382.099C-506.134,-295.802,-512.427,-182.871,-524.391,-75.396C-535.999,28.883,-568.818,146.158,-509.398,232.634C-450.314,318.62,-313.132,294.527,-228.39,355.382C-136.22,421.57,-112.301,582.171,0,598.439"
            fill="rgba(212, 212, 212, 0.9333333333333333)"></path>
        <path
            d="M1440 1191.661C1534.652 1166.105 1623.551 1134.906 1707.221 1083.805 1792.6970000000001 1031.601 1877.576 977.0219999999999 1930.584 892.042 1988.12 799.802 2017.437 693.538 2018.4650000000001 584.829 2019.612 463.45500000000004 2005.054 337.896 1936.771 237.54500000000002 1864.5720000000001 131.43899999999996 1752.241 59.35699999999997 1631.434 16.034999999999968 1505.835-29.004999999999995 1363.414-63.59299999999996 1240.269-12.221000000000004 1119.902 37.99199999999996 1056.944 167.414 994.321 281.817 941.835 377.701 937.246 485.977 909.663 591.749 877.848 713.751 791.909 828.29 819.746 951.261 849.064 1080.772 936.761 1210.409 1060.575 1258.397 1182.788 1305.7649999999999 1313.46 1225.826 1440 1191.661"
            fill="rgba(248, 248, 248, 0.9333333333333333)"></path>
    </g>
    <defs>
        <mask id="SvgjsMask1080">
            <rect width="1440" height="668" fill="#ffffff"></rect>
        </mask>
    </defs>
</svg>